<svg width="453.1" height="389.6" xmlns="http://www.w3.org/2000/svg" version="1.1" xml:space="preserve">
 <g>
  <title>Layer 1</title>
  <path class="st0" d="m234.1,194.6c0,4 -3.6,7.7 -7.6,7.7c-4.1,0 -7.5,-3.6 -7.4,-7.8c0.1,-4.1 3.2,-7.1 7.3,-7.2c4.2,-0.1 7.6,3.2 7.7,7.3z" fill="#FFFFFF" id="svg_1"/>
  <g stroke="null" id="svg_2">
   <path stroke="#F47B26" class="st1" d="m310.6,271.7c-5.70069,7.2 -12.2784,14 -19.73314,20.2c-58.76091,49.2 -150.19112,45.6 -204.12838,-8s-49.99062,-137 8.77028,-186.2c49.44248,-41.4 121.90696,-45.4 175.73458,-13.8" fill="none" stroke-width="6" stroke-miterlimit="10" id="svg_3"/>
  </g>
  <g stroke="null" stroke-width="0">
   <path stroke="null" d="m373.58126,212.52075c-24.7937,0 -49.12818,9.03277 -66.76441,24.78193c-1.15735,1.03305 -1.15155,2.70262 0.01044,3.72847c0.57984,0.51189 1.33594,0.76732 2.09436,0.76732c0.7619,0 1.5238,-0.25852 2.1048,-0.77659c16.52991,-14.76142 39.33014,-23.22772 62.55481,-23.22772c1.63977,0 2.96875,-1.18034 2.96875,-2.6367c0,-1.45534 -1.32898,-2.6367 -2.96875,-2.6367zm0,0"/>
   <path stroke="null" d="m311.67354,210.07871c-0.91846,-1.20711 -2.76349,-1.52434 -4.12146,-0.70861c-12.69489,7.61555 -23.41602,17.14476 -31.86768,28.32191c-0.91382,1.20917 -0.552,2.84785 0.80945,3.65946c0.50909,0.30281 1.08313,0.44803 1.65253,0.44803c0.95557,0 1.8949,-0.40993 2.46777,-1.16695c8.02258,-10.6117 18.20331,-19.65993 30.26154,-26.89335c1.35797,-0.8147 1.71515,-2.45337 0.79785,-3.66049zm0,0"/>
   <path stroke="null" d="m373.58126,191.29528c-13.2724,0 -26.40912,2.01358 -39.04486,5.98511c-1.54584,0.48511 -2.35529,1.99195 -1.80792,3.36489c0.43024,1.08249 1.57599,1.75815 2.79828,1.75815c0.32818,0 0.66217,-0.04944 0.99035,-0.15244c11.99793,-3.77069 24.46784,-5.6823 37.06415,-5.6823c1.63977,0 2.96875,-1.18034 2.96875,-2.6367c0,-1.45637 -1.32898,-2.6367 -2.96875,-2.6367zm0,0"/>
   <path stroke="null" d="m267.08546,223.70615c19.53113,-22.61695 47.80384,-38.32079 79.00123,-44.206c0.0058,-0.00103 0.0116,-0.00206 0.01624,-0.00309c8.96539,-1.69017 18.16968,-2.57079 27.47833,-2.57079c1.63861,0 2.96875,-1.18137 2.96875,-2.6367c0,-1.45637 -1.33014,-2.6367 -2.96875,-2.6367c-8.44122,0 -16.84998,0.68595 -25.11609,2.02799l0,-5.69157c10.73041,-8.0677 16.62036,-18.63924 16.62036,-29.89673c0,-11.63961 -6.29584,-22.54588 -17.72901,-30.7104c-1.08661,-0.77556 -2.63477,-0.77556 -3.72137,0c-11.43201,8.16452 -17.72901,19.07079 -17.72901,30.7104c0,11.25749 5.89111,21.82903 16.62036,29.89673l0,6.76994c-5.64063,1.14017 -11.20007,2.59345 -16.64356,4.34335l0,-15.43811c0,-0.72509 -0.32934,-1.38118 -0.86279,-1.85805l0,-0.00103l-16.625,-14.85309c-0.5578,-0.49747 -1.31506,-0.77762 -2.10596,-0.77762l-33.94232,0c-0.78974,0 -1.54816,0.28015 -2.1048,0.77762l-16.625,14.85309l0,0.00103c-0.53345,0.47687 -0.86395,1.13296 -0.86395,1.85908l0,10.06891c-2.06885,-0.3368 -4.14697,-0.63343 -6.23438,-0.8868l0,-9.39944c8.1142,-6.19935 12.56616,-14.28455 12.56616,-22.89813c0,-8.99878 -4.85669,-17.42182 -13.67481,-23.72004c-1.08661,-0.77556 -2.63361,-0.77556 -3.72022,0c-8.81812,6.29719 -13.67481,14.72126 -13.67481,23.72004c0,8.61255 4.45196,16.69775 12.56616,22.8971l0,8.79382c-4.32904,-0.35946 -8.68707,-0.54485 -13.0625,-0.54485c-1.63977,0 -2.96875,1.18034 -2.96875,2.6367s1.32898,2.6367 2.96875,2.6367c23.73841,0 46.95728,5.57828 67.42658,16.16114c-4.90424,2.96011 -9.58813,6.19317 -14.0227,9.67341c-16.58441,-7.50431 -35.01154,-11.46451 -53.40387,-11.46451c-1.63861,0 -2.96875,1.18034 -2.96875,2.6367s1.33014,2.6367 2.96875,2.6367c16.73517,0 33.50397,3.45656 48.73853,10.02051c-4.51343,3.87781 -8.7323,8.0265 -12.62531,12.41208c-11.54798,-4.30112 -23.68506,-6.48053 -36.11322,-6.48053c-1.63861,0 -2.96875,1.18034 -2.96875,2.6367s1.33014,2.6367 2.96875,2.6367c11.13281,0 22.01746,1.87453 32.41504,5.56592c-2.05145,2.53165 -4.00085,5.1323 -5.83429,7.80197l-4.52386,6.58249c-0.85468,1.24214 -0.41168,2.86536 0.98687,3.62341c0.48358,0.26264 1.01703,0.38727 1.54468,0.38727c0.99963,0 1.97724,-0.45009 2.53619,-1.26376l4.52386,-6.58249c2.35876,-3.43287 4.90772,-6.73596 7.62482,-9.90721c0.10669,-0.10506 0.20642,-0.21732 0.2934,-0.33989zm64.75934,-85.61359c0,-9.37163 4.8277,-18.24888 13.65161,-25.20525c8.82391,6.95637 13.65161,15.83362 13.65161,25.20525c0,8.25824 -3.75268,16.13436 -10.68286,22.64888l0,-20.19139c0,-1.45637 -1.32898,-2.6367 -2.96875,-2.6367c-1.63977,0 -2.96875,1.18034 -2.96875,2.6367l0,20.19139c-6.93134,-6.51452 -10.68286,-14.39064 -10.68286,-22.64888zm-97.89222,2.45749c0,-6.72566 3.38971,-13.11348 9.59741,-18.18914c6.2077,5.07462 9.59741,11.46348 9.59741,18.18914c0,5.55871 -2.31818,10.88774 -6.62866,15.43605l0,-17.54541c0,-1.45637 -1.32898,-2.6367 -2.96875,-2.6367c-1.63861,0 -2.96875,1.18034 -2.96875,2.6367l0,17.54541c-4.31049,-4.54832 -6.62866,-9.87734 -6.62866,-15.43605zm81.82502,20.47772l-25.57068,0l-10.72229,-9.57968l25.57068,0l10.72229,9.57968zm-43.43073,-8.47659l9.4884,8.47659l-18.97565,0l9.48724,-8.47659zm-13.65625,13.75l27.3125,0l0,16.76779c-1.37653,-0.56236 -2.76117,-1.10618 -4.15625,-1.62837l0,-8.85562c0,-1.45534 -1.32898,-2.6367 -2.96875,-2.6367l-13.0625,0c-1.63861,0 -2.96875,1.18137 -2.96875,2.6367l0,3.13521c-1.38001,-0.31929 -2.76465,-0.6221 -4.15625,-0.90431l0,-8.5147zm17.21875,13.0589c-2.35413,-0.77041 -4.72913,-1.48521 -7.125,-2.14129l0,-1.9971l7.125,0l0,4.13839zm16.03125,6.28895l0,-19.34785l28.00598,0l0,14.84794c-5.08515,1.87144 -10.05432,4.00758 -14.87158,6.40946c-1.54004,0.76732 -3.06152,1.56451 -4.56561,2.3823c-2.8064,-1.52228 -5.66382,-2.95393 -8.56879,-4.29185zm0,0"/>
   <path stroke="null" d="m345.49642,133.16728c0.78045,0 1.547,-0.28221 2.099,-0.7735c0.552,-0.49026 0.86975,-1.17004 0.86975,-1.8632c0,-0.69419 -0.31659,-1.37397 -0.86975,-1.86423c-0.552,-0.49129 -1.31854,-0.77247 -2.099,-0.77247c-0.78046,0 -1.547,0.28118 -2.09784,0.77247c-0.55316,0.49026 -0.87091,1.17004 -0.87091,1.86423c0,0.69317 0.31775,1.37294 0.87091,1.8632c0.55084,0.49026 1.31738,0.7735 2.09784,0.7735zm0,0"/>
   <path stroke="null" d="m319.72744,203.11101c-0.55084,0.49026 -0.86975,1.17004 -0.86975,1.8632c0,0.69625 0.31775,1.37397 0.86975,1.86423c0.55316,0.49129 1.31854,0.77247 2.099,0.77247c0.78162,0 1.547,-0.28118 2.099,-0.77247c0.552,-0.49026 0.86975,-1.16798 0.86975,-1.86423c0,-0.69317 -0.31775,-1.37294 -0.86975,-1.8632c-0.552,-0.49129 -1.31738,-0.7735 -2.099,-0.7735c-0.78046,0 -1.54584,0.28221 -2.099,0.7735zm0,0"/>
  </g>
 </g>

</svg>