<?xml version="1.0" encoding="utf-8"?>
<!-- Generator: Adobe Illustrator 23.1.0, SVG Export Plug-In . SVG Version: 6.00 Build 0)  -->
<svg version="1.1" id="Layer_1" xmlns="http://www.w3.org/2000/svg" xmlns:xlink="http://www.w3.org/1999/xlink" x="0px" y="0px"
	 viewBox="0 0 453.1 389.6" style="enable-background:new 0 0 453.1 389.6;" xml:space="preserve">
<style type="text/css">
	.st0{fill:#FFFFFF;}
	.st1{fill:#FFFFFF;stroke:#000000;stroke-linecap:round;stroke-miterlimit:10;}
	.st2{fill:#FFFFFF;stroke:#000000;stroke-width:2;stroke-linecap:round;stroke-miterlimit:10;}
</style>
<path class="st0" d="M234.1,194.6c0,4-3.6,7.7-7.6,7.7c-4.1,0-7.5-3.6-7.4-7.8c0.1-4.1,3.2-7.1,7.3-7.2
	C230.6,187.2,234,190.5,234.1,194.6z"/>
<g>
	<polyline class="st1" points="347,323.5 347,255.3 347,39.8 95.5,39.8 95.5,339.3 263.1,339.3 331.2,339.3 	"/>
	<circle class="st1" cx="297.1" cy="289.4" r="60.4"/>
	<polyline class="st2" points="270.3,298 285.2,312.8 323.9,266 	"/>
	<line class="st1" x1="122.7" y1="96.5" x2="265.5" y2="96.5"/>
	<line class="st1" x1="122.7" y1="113.4" x2="265.5" y2="113.4"/>
	<line class="st1" x1="122.7" y1="130.3" x2="265.5" y2="130.3"/>
	<line class="st1" x1="122.7" y1="147.2" x2="265.5" y2="147.2"/>
	<line class="st1" x1="122.7" y1="164.1" x2="265.5" y2="164.1"/>
	<line class="st1" x1="122.7" y1="181" x2="265.5" y2="181"/>
	<line class="st1" x1="122.7" y1="197.9" x2="265.5" y2="197.9"/>
	<line class="st1" x1="122.7" y1="214.8" x2="265.5" y2="214.8"/>
	<line class="st1" x1="122.7" y1="231.7" x2="265.5" y2="231.7"/>
</g>
</svg>