<?xml version="1.0" encoding="utf-8"?>
<!-- Generator: Adobe Illustrator 23.1.0, SVG Export Plug-In . SVG Version: 6.00 Build 0)  -->
<svg version="1.1" id="Layer_1" xmlns="http://www.w3.org/2000/svg" xmlns:xlink="http://www.w3.org/1999/xlink" x="0px" y="0px"
	 viewBox="0 0 453.1 389.6" style="enable-background:new 0 0 453.1 389.6;" xml:space="preserve">
<style type="text/css">
	.st0{fill:none;stroke:#F26222;stroke-linecap:round;stroke-linejoin:round;stroke-miterlimit:10;stroke-dasharray:2;}
	.st1{fill:none;stroke:#000000;stroke-miterlimit:10;}
</style>
<g>
	<path class="st0" d="M383.9,237.7c-2-21-22-36.1-43-32.4c-5.8,1-8.5-1.6-7.2-7.5c6.5-30.7-22-55.8-50.5-47
		c-5.2,1.6-6.8,0.5-8.7-5.1c-7.1-20.6-26.3-34.2-48.2-34.1c-21.6,0.1-41,14.1-47.7,34.4c-1.8,5.3-3.6,6.3-9,4.6
		c-17.3-5.2-36.4,2.5-45.5,18.2c-5.4,9.3-6.7,19-4.4,29.4c1.2,5.2-1.7,8.1-7.1,7.1c-1.7-0.3-3.4-0.4-5.1-0.5
		c-19.4-1.5-37.8,15.1-38.3,34.6c-0.6,22.2,15.5,38.6,37.7,38.7c39.9,0,79.7,0,119.6,0c40.3,0,80.6,0,120.9,0
		C369.1,278,385.9,259.4,383.9,237.7z"/>
	<path class="st1" d="M258.2,188.9c1.2,2.9,2.3,5.6,3.4,8.5c1.7,0.2,3.6,0.4,5.5,0.7c2,0.3,3.4,1.9,3.4,4c0,3.1,0,6.3,0,9.4
		c0,2.2-1.4,3.9-3.6,4.2c-1.6,0.2-3.2,0.4-4.8,0.5c-0.6,0-0.8,0.3-1,0.8c-1,2.4-2,4.8-3,7.2c-0.2,0.4-0.2,0.7,0.1,1
		c1.1,1.3,2.1,2.7,3.2,4c1.5,1.9,1.3,4-0.3,5.7c-2.1,2.1-4.3,4.3-6.4,6.4c-1.7,1.7-3.9,1.8-5.7,0.4c-1.4-1.1-2.7-2.1-4.1-3.2
		c-0.4-0.3-0.6-0.3-1-0.1c-2.5,1-4.9,2-7.4,3c-0.4,0.2-0.6,0.3-0.6,0.7c-0.2,1.8-0.4,3.7-0.6,5.5c-0.2,2-1.8,3.5-3.9,3.6
		c-3.3,0-6.5,0-9.8,0c-2,0-3.7-1.6-3.9-3.6c-0.2-1.9-0.4-3.8-0.7-5.7c0-0.2-0.3-0.6-0.5-0.7c-2.3-1-4.6-2-7-3
		c-0.3-0.1-0.7,0-0.9,0.1c-1.4,1-2.7,2.1-4,3.2c-2.1,1.7-4.2,1.6-6.1-0.3c-2.1-2.1-4.1-4.1-6.2-6.2c-1.8-1.8-1.9-3.9-0.4-5.9
		c1.1-1.4,2.2-2.8,3.3-4.2c0.3-0.3,0.3-0.6,0.1-0.9c-1-2.2-1.9-4.3-2.8-6.5c-0.2-0.4-0.3-0.6-0.9-0.7c-1.9-0.2-3.8-0.4-5.7-0.7
		c-1.9-0.2-3.4-1.9-3.4-3.9c0-3.3,0-6.5,0-9.8c0-2.1,1.5-3.7,3.6-3.9c1.7-0.2,3.4-0.4,5.2-0.6c0.4,0,0.6-0.2,0.8-0.7
		c0.9-2.4,1.8-4.8,2.8-7.1c0.2-0.5,0.2-0.8-0.1-1.2c-1.1-1.3-2.1-2.7-3.2-4c-1.3-1.7-1.3-3.8,0.2-5.4c2.3-2.4,4.6-4.7,6.9-6.9
		c1.5-1.5,3.7-1.5,5.4-0.1c1.3,1,2.5,2,3.8,3c0.3,0.3,0.6,0.3,0.9,0.1c2.5-1.4,5.1-2.5,7.8-3.3c0.5-0.1,0.7-0.4,0.7-0.9
		c0.1-1.6,0.3-3.1,0.5-4.7c0.3-2.2,1.9-3.7,4.1-3.7c3.1-0.1,6.2,0,9.3,0c2.3,0,3.8,1.4,4.2,3.7c0.2,1.6,0.4,3.2,0.6,4.8
		c0,0.4,0.2,0.6,0.6,0.7c2.6,1,5.1,2.1,7.7,3.2c0.4,0.2,0.6,0.2,0.9-0.1c1.2-1,2.4-2,3.7-2.9c1.8-1.4,3.9-1.3,5.5,0.3
		c2.2,2.2,4.4,4.4,6.6,6.6c1.6,1.6,1.7,3.8,0.3,5.5C260.3,186.3,259.2,187.6,258.2,188.9z M226.7,191c-8.5,0-15.6,7-15.7,15.4
		c-0.1,8.6,6.7,15.8,15.2,16c9,0.2,16.2-6.8,16.2-15.6C242.4,197.8,235.1,191,226.7,191z"/>
</g>
</svg>