<?xml version="1.0" encoding="utf-8"?>
<!-- Generator: Adobe Illustrator 23.1.0, SVG Export Plug-In . SVG Version: 6.00 Build 0)  -->
<svg version="1.1" id="Layer_1" xmlns="http://www.w3.org/2000/svg" xmlns:xlink="http://www.w3.org/1999/xlink" x="0px" y="0px"
	 viewBox="0 0 453.1 389.6" style="enable-background:new 0 0 453.1 389.6;" xml:space="preserve">
<style type="text/css">
	.st0{fill:#FFFFFF;}
	.st1{fill:none;stroke:#F47B26;stroke-width:6;stroke-miterlimit:10;}
	.st2{fill:#FFFFFF;stroke:#000000;stroke-linecap:round;stroke-miterlimit:10;}
</style>
<path class="st0" d="M234.1,194.6c0,4-3.6,7.7-7.6,7.7c-4.1,0-7.5-3.6-7.4-7.8c0.1-4.1,3.2-7.1,7.3-7.2
	C230.6,187.2,234,190.5,234.1,194.6z"/>
<g>
	<path class="st1" d="M310.6,271.7c-5.2,7.2-11.2,14-18,20.2c-53.6,49.2-137,45.6-186.2-8s-45.6-137,8-186.2
		c45.1-41.4,111.2-45.4,160.3-13.8"/>
	<g>
		<path class="st2" d="M312.7,144.2c0,7.6-1.3,14.9-5,21.7c-5.1,9.5-13.1,14.9-23.7,16.4c-8.1,1.1-15.6-0.5-22.3-5.1
			c-7.3-5-11.5-12.2-13.2-20.8c-2.2-11.1-1.6-22,4.1-32.2c4.8-8.6,11.9-14.3,21.7-15.9c12.8-2.1,24,0.8,31.9,12
			c3.4,4.8,5.1,10.3,5.9,16C312.4,138.9,312.5,141.6,312.7,144.2z M293.8,145c0-6-0.8-10.6-2.4-14.2c-2-4.5-5.3-7.3-10.5-7.6
			c-5.5-0.3-9.3,2.4-11.5,7.1c-3.7,8-3.9,16.4-2.1,24.8c0.9,4,2.7,7.7,6.2,10.1c5.2,3.5,14.3,2.7,17.8-6
			C293.2,154.6,293.8,149.9,293.8,145z"/>
		<path class="st2" d="M353.1,257.4c-20.1,0.2-32.1-10.3-35.3-24.4c-2.8-12.3-2.3-24.2,4.4-35.1c6.9-11.2,17.2-16.2,30.4-15.2
			c11.2,0.9,19.6,6.2,24.5,16.3c3.7,7.6,4.7,15.8,4,24.2c-0.5,6.5-1.9,12.8-5.2,18.5C369.8,252.2,360.5,257.2,353.1,257.4z
			 M335,220.9c-0.1,5.6,0.8,11.5,4.4,16.8c2.8,4.1,6.6,5.9,11.6,5c4.8-0.8,7.5-4,9.1-8.2c2.4-6.2,2.8-12.6,2.2-19.2
			c-0.3-4.1-1-8.1-3-11.8c-4.6-8.5-15.2-8.8-20.3-0.6C335.8,208.3,335,214.2,335,220.9z"/>
		<path class="st2" d="M261.4,250.2c0.5-1.1,0.9-2.7,1.7-4.1c14.1-22.7,28.2-45.4,42.2-68.1c10.6-17.1,21.2-34.3,31.8-51.4
			c2.8-4.4,7.4-5.9,11.4-3.5c4.2,2.5,5.3,7.4,2.6,11.7c-6.8,10.9-13.6,21.9-20.4,32.8c-8.1,13.1-16.2,26.1-24.3,39.2
			c-9.9,16-19.8,32-29.7,48c-1.8,2.9-4.5,4.4-7.8,4.1c-3.4-0.3-5.9-2.3-7-5.7C261.7,252.5,261.7,251.6,261.4,250.2z"/>
		<path class="st2" d="M335,220.9c0-6.7,0.7-12.7,4-18c5.1-8.2,15.7-7.9,20.3,0.6c2,3.7,2.7,7.7,3,11.8c0.6,6.5,0.2,13-2.2,19.2
			c-1.6,4.2-4.3,7.4-9.1,8.2c-5,0.9-8.8-1-11.6-5C335.8,232.5,334.9,226.5,335,220.9z"/>
	</g>
</g>
</svg>